<svg width="135" height="81" viewBox="0 0 135 81" fill="none" xmlns="http://www.w3.org/2000/svg">
<g clip-path="url(#clip0_395_2265)">
<path d="M31.0965 58.9215L28.6082 58.8891L30.8854 52.6322C31.1312 51.9564 31.434 51.2106 31.7937 50.3946L31.7313 50.3938C31.3677 51.0339 31.0827 51.4943 30.876 51.7748L25.6675 58.8508L23.6082 58.824L23.5017 51.7522C23.4977 51.5616 23.5579 51.074 23.6815 50.289L23.6112 50.2882C23.3036 51.3198 23.0085 52.2245 22.7253 53.0023L20.6208 58.7853L18.3508 58.7557L22.1567 48.2983L25.8463 48.3462L25.8758 54.5747C25.8772 55.0728 25.8285 55.5729 25.7294 56.0747L25.7764 56.0753C26.1272 55.4986 26.4586 54.9973 26.7703 54.5717L31.3064 48.4173L34.9023 48.4641L31.0965 58.9215ZM41.0158 59.2337C39.4142 59.2129 38.2858 58.7098 37.6308 57.7243C36.9776 56.7341 36.9358 55.4561 37.5056 53.8907C38.1071 52.2378 39.106 50.9074 40.502 49.8999C41.8979 48.8921 43.441 48.3994 45.1311 48.4214C46.7275 48.4421 47.8393 48.9475 48.4666 49.9376C49.0988 50.9277 49.124 52.2223 48.5418 53.8218C47.9439 55.4651 46.9496 56.7831 45.5589 57.7761C44.1733 58.7694 42.659 59.2552 41.0158 59.2337ZM44.3231 50.4478C43.439 50.4363 42.6238 50.7383 41.8773 51.3537C41.1324 51.9644 40.5744 52.7803 40.2028 53.8012C39.826 54.8367 39.7878 55.6592 40.0884 56.2689C40.3891 56.8786 40.9605 57.1889 41.803 57.1998C42.6713 57.2111 43.4666 56.9284 44.1885 56.3515C44.9122 55.77 45.4634 54.959 45.842 53.9185C46.2367 52.8343 46.2966 51.9876 46.022 51.3785C45.7474 50.7692 45.181 50.4589 44.3231 50.4478ZM61.2548 59.3139L58.712 59.2808L56.4933 52.6503C56.3627 52.2628 56.2808 51.9711 56.2474 51.7752L56.2163 51.7748C56.1234 52.1448 55.9389 52.7091 55.6629 53.4674L53.5716 59.2139L51.1925 59.1831L54.9983 48.7256L57.7129 48.7609L59.8343 55.1851C59.9326 55.4746 60.0164 55.7615 60.0853 56.0456L60.1165 56.0459C60.1634 55.8024 60.3168 55.3233 60.577 54.6086L62.6817 48.8256L65.0608 48.8566L61.2548 59.3139ZM77.4918 50.9453L74.3015 50.9038L71.1937 59.4434L68.6664 59.4104L71.7742 50.8709L68.5995 50.8296L69.2975 48.9118L78.1897 49.0275L77.4918 50.9453ZM88.4413 59.6677L85.6956 59.632L85.7465 57.2953L81.7684 57.2437L80.134 59.5597L77.4039 59.5242L85.2814 49.1197L88.269 49.1586L88.4413 59.6677ZM85.8276 55.4793L85.9055 51.9487C85.9127 51.6851 85.9644 51.3708 86.0607 51.0057L85.9984 51.0047C85.8608 51.3108 85.6852 51.6138 85.4715 51.9138L82.9648 55.442L85.8276 55.4793ZM102.616 59.8522L100.073 59.8192L97.854 53.1887C97.7234 52.801 97.6415 52.5093 97.6084 52.3136L97.577 52.3132C97.4841 52.6831 97.2998 53.2473 97.0238 54.0059L94.9323 59.7523L92.5532 59.7213L96.3592 49.264L99.0736 49.2993L101.195 55.7233C101.293 56.0128 101.377 56.2997 101.446 56.5838L101.477 56.5842C101.524 56.3406 101.678 55.8615 101.938 55.1468L104.042 49.3638L106.421 49.3948L102.616 59.8522Z" fill="white"/>
<path d="M43.4356 20.3492L21.1686 45.0661L43.4356 26.9007L57.5147 41.8897L83.2766 16.0808L109.238 45.0661L83.2766 0.198486L57.5147 34.3455L43.4356 20.3492Z" fill="white" stroke="white"/>
<path d="M3.59473 72.4632L8.14636 67.5H118.426L121.22 72.4632H3.59473Z" fill="white" stroke="white"/>
</g>
<defs>
<clipPath id="clip0_395_2265">
<rect width="135" height="81" fill="white"/>
</clipPath>
</defs>
</svg>
